<svg xmlns="http://www.w3.org/2000/svg" xmlns:xlink="http://www.w3.org/1999/xlink" viewBox="0,0,256,256" width="100px" height="100px"><g fill="none" fill-rule="none" stroke="none" stroke-width="1" stroke-linecap="butt" stroke-linejoin="miter" stroke-miterlimit="10" stroke-dasharray="" stroke-dashoffset="0" font-family="none" font-weight="none" font-size="none" text-anchor="none" style="mix-blend-mode: normal"><g transform="scale(5.33333,5.33333)"><path d="M24,4c-11.046,0 -20,8.954 -20,20c0,11.046 8.954,20 20,20c11.046,0 20,-8.954 20,-20c0,-11.046 -8.954,-20 -20,-20zM24,40c-8.837,0 -16,-7.163 -16,-16c0,-8.837 7.163,-16 16,-16c8.837,0 16,7.163 16,16c0,8.837 -7.163,16 -16,16z" fill="#000000" fill-rule="nonzero" opacity="0.72"></path><path d="M39.95,25c-0.519,8.368 -7.451,15 -15.95,15c-8.499,0 -15.431,-6.632 -15.95,-15h-4c0.525,10.578 9.242,19 19.95,19c10.708,0 19.425,-8.422 19.95,-19z" fill="#000000" fill-rule="nonzero"></path><path d="M24,42c9.941,0 18,-8.059 18,-18c0,-9.941 -8.059,-18 -18,-18c-9.941,0 -18,8.059 -18,18c0,9.941 8.059,18 18,18zM24,8c8.837,0 16,7.163 16,16c0,8.837 -7.163,16 -16,16c-8.837,0 -16,-7.163 -16,-16c0,-8.837 7.164,-16 16,-16z" fill="#000000" fill-rule="nonzero"></path><path d="M8,24v0c0,-8.837 7.163,-16 16,-16c8.837,0 16,7.163 16,16v0h2v0c0,-9.941 -8.059,-18 -18,-18c-9.941,0 -18,8.059 -18,18v0z" fill="#000000" fill-rule="nonzero"></path><path d="M24,18c6.943,0 18.733,0.485 22.166,1.603c0.479,0.156 0.589,0.274 0.654,1.08c0.099,1.233 0.177,2.187 0.18,3.317c0.002,1.09 -0.066,2.345 -0.255,4.175c-0.044,0.43 -0.348,0.708 -0.811,0.782c-4.485,0.723 -13.454,1.061 -21.934,1.043c-8.693,-0.019 -16.256,-0.26 -22.042,-1.192c-0.732,-0.118 -0.662,-0.972 -0.732,-1.639c-0.113,-1.07 -0.208,-2.105 -0.226,-3.169c-0.019,-1.123 0.046,-2.278 0.265,-3.541c0.096,-0.558 0.208,-0.904 1.002,-1.08c4.551,-1.006 9.62,-1.379 21.733,-1.379z" fill="#000000" fill-rule="evenodd"></path><path d="M46.819,20.683c-0.006,-0.071 -0.013,-0.131 -0.019,-0.192c-0.016,0.235 -0.029,0.471 -0.029,0.71c0,1.518 -2.071,1.842 -2.774,1.93c-5.478,0.692 -12.294,0.884 -19.997,0.9c-0.001,0 -0.001,0 -0.002,0h-0.002c-7.702,-0.016 -14.518,-0.208 -19.996,-0.9c-0.703,-0.089 -2.774,-0.412 -2.774,-1.93c0,-0.125 -0.01,-0.247 -0.015,-0.37c-0.17,1.117 -0.228,2.159 -0.211,3.169c0.018,1.064 0.113,2.099 0.226,3.169c0.07,0.666 0.001,1.521 0.732,1.639c5.786,0.932 13.349,1.173 22.042,1.192c8.48,0.018 17.449,-0.32 21.934,-1.043c0.463,-0.075 0.766,-0.352 0.811,-0.782c0.189,-1.83 0.258,-3.085 0.255,-4.175c-0.003,-1.13 -0.081,-2.084 -0.181,-3.317z" fill="#000000" fill-rule="evenodd"></path><path d="M19.188,23.506c0.945,0.105 1.599,0.177 1.788,1.182c0,0.079 0.024,0.251 0.024,0.542c0,0.185 0,0.479 0,0.791c0,0.917 -0.696,0.979 -1.688,0.979h-4.123c-0.142,0 -0.165,-0.026 -0.165,-0.185v-0.622c0,-0.159 0.024,-0.185 0.165,-0.185h4.591c0.165,0 0.213,-0.053 0.236,-0.185v-0.729v-0.239c-0.024,-0.106 -0.047,-0.265 -0.26,-0.29c-0.449,-0.026 -2.365,-0.271 -3.263,-0.376c-1.158,-0.132 -1.423,-0.495 -1.47,-0.971c-0.023,-0.16 -0.023,-0.371 -0.023,-0.556c0,-0.159 -0.003,-0.372 0.021,-0.558c0,-0.917 0.571,-1.104 1.563,-1.104h4.227c0.142,0 0.19,0.027 0.19,0.159v0.679c0,0.132 -0.047,0.185 -0.19,0.158h-4.545c-0.165,0 -0.236,0.079 -0.26,0.264v0.198v0.431c0,0.132 0.071,0.238 0.236,0.264c0.449,0.054 2.427,0.3 2.946,0.353zM26.188,23.506c0.945,0.105 1.599,0.177 1.788,1.182c0,0.079 0.024,0.251 0.024,0.542c0,0.185 0,0.479 0,0.791c0,0.917 -0.696,0.979 -1.688,0.979h-4.123c-0.142,0 -0.165,-0.026 -0.165,-0.185v-0.622c0,-0.159 0.024,-0.185 0.165,-0.185h4.591c0.165,0 0.213,-0.053 0.236,-0.185v-0.729v-0.239c-0.024,-0.106 -0.047,-0.265 -0.26,-0.29c-0.449,-0.026 -2.365,-0.271 -3.263,-0.376c-1.158,-0.132 -1.423,-0.495 -1.47,-0.971c-0.023,-0.16 -0.023,-0.371 -0.023,-0.556c0,-0.159 -0.003,-0.372 0.021,-0.558c0,-0.917 0.571,-1.104 1.563,-1.104h4.227c0.142,0 0.19,0.027 0.19,0.159v0.679c0,0.132 -0.047,0.185 -0.19,0.158h-4.545c-0.165,0 -0.236,0.079 -0.26,0.264v0.198v0.431c0,0.132 0.071,0.238 0.236,0.264c0.449,0.054 2.427,0.3 2.946,0.353zM11.849,21c0.129,0 0.151,0.053 0.151,0.185v5.655c0,0.159 -0.022,0.185 -0.151,0.185h-0.661c-0.165,0 -0.709,0.016 -1.1,-0.528c-0.9,-1.309 -3.088,-4.473 -3.088,-4.473v4.817c0,0.159 -0.022,0.185 -0.151,0.185h-0.698c-0.129,-0.001 -0.151,-0.027 -0.151,-0.185v-5.655c0,-0.133 0.022,-0.186 0.151,-0.186h0.433c0.565,0 0.976,0.024 1.252,0.503c0.277,0.462 3.144,4.486 3.144,4.486v-4.803c0,-0.132 0.022,-0.185 0.151,-0.185h0.718zM41.849,21c0.129,0 0.151,0.053 0.151,0.185v5.655c0,0.159 -0.022,0.185 -0.151,0.185h-0.661c-0.165,0 -0.709,0.016 -1.1,-0.528c-0.9,-1.309 -3.088,-4.473 -3.088,-4.473v4.817c0,0.159 -0.022,0.185 -0.151,0.185h-0.698c-0.129,0 -0.151,-0.026 -0.151,-0.185v-5.655c0,-0.133 0.022,-0.186 0.151,-0.186h0.433c0.565,0 0.976,0.024 1.252,0.503c0.277,0.462 3.144,4.486 3.144,4.486v-4.803c0,-0.132 0.022,-0.185 0.151,-0.185h0.718zM13.909,21.027c0.076,0 0.091,0.052 0.091,0.158v5.657c0,0.132 -0.015,0.185 -0.106,0.185h-0.788c-0.091,0 -0.106,-0.027 -0.106,-0.186v-5.657c0,-0.106 0.015,-0.158 0.076,-0.158h0.833zM34.952,26.735c-0.526,-1.533 -1.696,-5.1 -1.696,-5.1c-0.234,-0.661 -0.35,-0.635 -0.799,-0.635c-0.154,0 -0.3,0 -0.457,0c-0.157,0 -0.303,0 -0.457,0c-0.437,0 -0.565,-0.026 -0.799,0.635c0,0 -1.17,3.567 -1.696,5.1c-0.098,0.264 -0.039,0.264 0.117,0.264h0.782c0.078,0 0.117,-0.052 0.136,-0.105c0,0 0.13,-0.368 0.314,-0.893h3.207c0.185,0.525 0.314,0.893 0.314,0.893c0.019,0.053 0.058,0.105 0.136,0.105h0.782c0.155,0 0.214,0 0.116,-0.264zM30.748,25c0.468,-1.332 1.01,-2.879 1.01,-2.894c0.019,-0.053 0.059,-0.079 0.117,-0.079c0.018,-0.025 0.071,-0.026 0.125,-0.027c0.054,0 0.107,0.001 0.126,0.026c0.059,0 0.098,0.026 0.117,0.079c0,0.015 0.542,1.563 1.01,2.894h-2.505z" fill="#ffffff" fill-rule="nonzero"></path></g></g></svg>