<?xml version="1.0" encoding="utf-8"?><!-- Generator: Adobe Illustrator 15.0.0, SVG Export Plug-In . SVG Version: 6.00 Build 0)  --><!DOCTYPE svg PUBLIC "-//W3C//DTD SVG 1.1//EN" "http://www.w3.org/Graphics/SVG/1.1/DTD/svg11.dtd"><svg xmlns="http://www.w3.org/2000/svg" xmlns:xlink="http://www.w3.org/1999/xlink" viewBox="0 0 50 50" width="100px" height="100px"><path d="M36.279,23.634c0.49,0.036,0.992,0.059,1.506,0.059c3.193,0,7.525-0.738,10.029-4.255c0.318-0.448,0.217-1.068-0.229-1.39L25.661,2.189c-0.388-0.281-0.922-0.247-1.272,0.083C20.721,5.735,7.358,12.917,2.71,14.518c-0.349,0.12-0.604,0.423-0.662,0.788c-0.053,0.331,0.071,0.658,0.313,0.883L30.418,36.07l-1.786,1.186L12.961,26.151c-0.477-0.054-0.968-0.083-1.473-0.083c-3.327,0-6.409,1.27-9.161,3.775c-0.221,0.199-0.34,0.488-0.326,0.787c0.014,0.297,0.161,0.572,0.399,0.752l21.889,16.416c0.179,0.135,0.39,0.201,0.6,0.201c0.24,0,0.48-0.088,0.67-0.258c3.874-3.494,16.563-11.074,20.89-12.477c0.354-0.115,0.616-0.418,0.678-0.785c0.062-0.369-0.086-0.74-0.384-0.965l-0.331-0.25L19.437,14.151l1.786-1.186L36.279,23.634z"/></svg>